<?xml version="1.0" encoding="UTF-8" standalone="no"?>
<svg
   id="Layer_1"
   data-name="Layer 1"
   viewBox="0 0 386.57575 387.09751"
   version="1.1"
   sodipodi:docname="H2tALENT-logo_Logotype_iconLarge.svg"
   inkscape:version="1.3 (0e150ed6c4, 2023-07-21)"
   width="386.57574"
   height="387.0975"
   inkscape:export-filename="H2tALENT-logo_Logotype_iconLarge.svg"
   inkscape:export-xdpi="200"
   inkscape:export-ydpi="200"
   xml:space="preserve"
   xmlns:inkscape="http://www.inkscape.org/namespaces/inkscape"
   xmlns:sodipodi="http://sodipodi.sourceforge.net/DTD/sodipodi-0.dtd"
   xmlns="http://www.w3.org/2000/svg"
   xmlns:svg="http://www.w3.org/2000/svg"><sodipodi:namedview
     id="namedview10"
     pagecolor="#505050"
     bordercolor="#ffffff"
     borderopacity="1"
     inkscape:showpageshadow="0"
     inkscape:pageopacity="0"
     inkscape:pagecheckerboard="1"
     inkscape:deskcolor="#d1d1d1"
     inkscape:zoom="0.95123798"
     inkscape:cx="240.73891"
     inkscape:cy="251.77716"
     inkscape:window-width="1920"
     inkscape:window-height="1017"
     inkscape:window-x="1912"
     inkscape:window-y="-8"
     inkscape:window-maximized="1"
     inkscape:current-layer="Layer_1" /><defs
     id="defs1"><style
       id="style1"> .cls-1 { fill: #125938; } .cls-1, .cls-2, .cls-3, .cls-4 { stroke-width: 0px; } .cls-2 { fill: #2e8c6a; } .cls-3 { fill: #f25835; } .cls-4 { fill: #f2762e; } </style><style
       id="style1-1"> .cls-1 { fill: #125938; } .cls-1, .cls-2, .cls-3, .cls-4 { stroke-width: 0px; } .cls-2 { fill: #2e8c6a; } .cls-3 { fill: #f25835; } .cls-4 { fill: #f2762e; } </style></defs><ellipse
     style="fill:#ffffff;fill-rule:evenodd;stroke:#125938;stroke-width:19.641;stroke-linecap:round;stroke-linejoin:round;stroke-dasharray:none;stroke-opacity:1;paint-order:stroke fill markers"
     id="path11"
     cx="193.28787"
     cy="193.54875"
     rx="183.46738"
     ry="183.72826"
     inkscape:export-filename="..\..\Users\amg13\Downloads\H2tALENT-logo_Logotype_iconLarge.svg"
     inkscape:export-xdpi="200"
     inkscape:export-ydpi="200" /><g
     id="g12"
     transform="matrix(1.0579683,0,0,1.0579683,-2.0031657,-126.37614)"><g
       id="g11"
       transform="matrix(0.9223311,0,0,0.99309923,-34.959437,-41.691952)"
       inkscape:export-filename="g11.png"
       inkscape:export-xdpi="17.402164"
       inkscape:export-ydpi="17.402164"><path
         class="cls-3"
         d="m 284.99593,483.16882 c 3.06068,-2.47822 5.65534,-5.07979 7.75877,-7.7935 2.10344,-2.71371 3.16146,-5.37135 3.16146,-7.98413 0,-2.46701 -0.66756,-4.40697 -2.01527,-5.83111 -1.34771,-1.42414 -3.50153,-2.1306 -6.48664,-2.1306 -2.98512,0 -5.13893,0.80739 -6.73855,2.41094 -1.59962,1.61477 -2.45611,3.75658 -2.58206,6.44786 h -5.61756 c 0.16374,-4.23877 1.61221,-7.52437 4.34542,-9.83439 2.72061,-2.31001 6.23473,-3.46502 10.54236,-3.46502 4.30764,0 7.85955,1.07651 10.44161,3.24075 2.56946,2.16424 3.86679,5.13586 3.86679,8.92608 0,3.15104 -1.05801,6.20116 -3.16145,9.184 -2.10343,2.97162 -4.49656,5.59562 -7.17939,7.84957 -2.68282,2.25395 -6.10878,4.87795 -10.27786,7.872 h 21.96641 v 4.31726 h -30.72023 v -3.70051 c 5.40344,-3.86872 9.64809,-7.04219 12.70878,-9.52041 z"
         id="path2" /><path
         class="cls-1"
         d="m 170.79325,383.96147 h 14.11947 v 38.58624 h 53.17786 v -38.58624 h 14.25802 v 91.72784 H 238.09058 V 432.7858 h -53.17786 v 42.90351 h -14.11947 z"
         id="path9" /></g><g
       id="g10"
       transform="matrix(0.8420918,0,0,0.8420918,5.6746481,24.243632)"><path
         class="cls-4"
         d="m 224.94985,203.71412 c 23.3064,-28.47712 65.43254,-32.68351 93.90966,-9.37711 28.4771,23.30639 32.68351,65.43254 9.3771,93.90965 -0.142,0.17349 -0.28486,0.33822 -0.4229,0.5069 6.97525,-0.39114 14.00044,-0.63681 20.89808,-0.52013 l -0.48517,-5.16914 c -0.29269,-3.06416 1.07353,-6.09038 3.56916,-7.91061 l 15.50186,-11.26174 c 1.90228,-1.38039 2.3426,-4.06191 0.97799,-5.98348 l -11.11757,-15.60919 c -1.78691,-2.51666 -2.12645,-5.82839 -0.86279,-8.64081 l 7.81159,-17.4993 c 0.95772,-2.15346 0.0103,-4.68315 -2.14181,-5.67197 l -17.42262,-7.97414 c -2.79663,-1.28294 -4.73908,-3.98322 -5.06288,-7.0487 l -2.01016,-19.06763 c -0.25034,-2.32933 -2.35235,-4.05778 -4.68915,-3.83772 l -19.08469,1.79502 c -3.06898,0.28873 -6.0904,-1.07354 -7.91062,-3.56917 l -11.26174,-15.50187 c -1.35936,-1.86897 -4.06498,-2.329 -5.98655,-0.9644 l -15.60919,11.11756 c -2.5079,1.78606 -5.82444,2.12165 -8.64081,0.86281 l -17.49931,-7.81159 c -2.14951,-0.96255 -4.69103,-6.9e-4 -5.67196,2.14181 l -7.97414,17.4226 c -1.28687,2.80147 -3.98322,4.73909 -7.04868,5.06289 l -19.06764,2.01016 c -2.33415,0.24636 -4.05779,2.35238 -3.83772,4.68915 l 1.64452,17.48886 c 3.51244,5.39351 6.24395,11.56418 8.17527,18.4963 2.47899,-7.83716 6.44726,-15.34066 11.96128,-22.07801 z"
         id="path10" /><path
         class="cls-2"
         d="m 385.24937,361.62993 c -0.52237,-1.35359 -13.03695,-33.52249 -34.57517,-61.80686 -19.9065,-26.1412 -51.52997,-53.48793 -89.13269,-35.30612 -0.24435,0.13395 -13.0482,7.49409 -30.96068,21.85482 -3.68192,-11.62535 -7.40877,-25.21765 -11.66923,-41.62287 -8.07438,-31.11845 -16.41556,-47.55187 -25.49819,-50.2379 -13.88511,-4.11012 -26.35195,25.5631 -37.34996,51.74659 -3.29997,7.85364 -6.41458,15.27018 -9.473,21.62923 l -2.33104,4.94906 c -9.55164,20.46599 -16.45208,35.24972 -39.86075,-9.59497 -7.254293,-13.89544 -14.977615,-18.42151 -22.953693,-13.44425 -21.212442,13.2398 -37.422983,90.30979 -40.981326,108.47044 -0.199402,0.5217 -0.398804,1.0293 -0.595398,1.56509 L 35.936373,371.38 H 388.9959 l -3.75493,-9.74302 z M 82.728442,262.66281 c 6.428611,-4.01142 12.46965,-0.3666 18.465748,11.11776 26.80132,51.34475 36.36981,30.84351 46.49999,9.13673 l 2.27486,-4.82216 c 3.19325,-6.6481 6.36964,-14.21269 9.73139,-22.22143 10.65256,-25.35864 21.67023,-51.57739 33.09511,-48.20046 7.42844,2.19958 14.52546,16.68721 21.68989,44.30185 3.87009,14.91063 7.34418,27.64283 10.75929,38.75354 -7.43686,6.211 -15.55336,13.50064 -23.90297,21.89008 -38.52391,38.68304 -54.97598,25.54194 -79.88157,5.647 0,0 -4.79689,-3.81402 -4.9317,-3.91977 -1.921,-1.80478 -34.799855,-31.45685 -64.308545,18.73875 6.945368,-27.48068 17.9855,-62.6176 30.505698,-70.42189 z m 69.599728,96.94378 c -0.0196,0 -92.710702,-1.59328 -104.090659,-1.79068 29.292437,-66.37523 64.884289,-32.57074 66.462659,-31.01976 l 0.0814,0.0846 5.07212,4.03257 c 25.05725,20.01479 43.16351,34.48128 83.44553,-5.9713 8.96186,-9.00278 17.6541,-16.72952 25.50099,-23.18727 8.55743,25.1965 17.4884,41.52417 32.07845,57.85184 h -108.5533 z m 122.53113,0 c -20.26879,-19.28159 -30.85394,-34.97477 -40.58813,-62.2651 16.55317,-13.0706 28.17466,-19.7469 28.3516,-19.85265 56.48694,-27.30443 99.80771,51.86644 113.90908,82.1107 H 274.8565 Z"
         id="path1" /></g></g><g
     id="g1"><path
       class="cls-1"
       d="m -509.40988,-29.72813 v 31.23 c 0,2.580002 0.55,4.400002 1.64,5.460002 1.1,1.06 3,1.6 5.71,1.6 h 6.48 v 7.45 h -7.93 c -4.9,0 -8.57,-1.13 -11.02,-3.38 -2.45,-2.26 -3.67,-5.96 -3.67,-11.120002 v -31.23 h -6.87 v -7.25 h 6.87 v -13.34 h 8.8 v 13.34 h 13.83 v 7.25 h -13.83 z"
       id="path3"
       style="fill:#125938;stroke-width:0px" /><path
       class="cls-1"
       d="m -492.59988,86.205819 h -35.44 l -6.53,18.070001 h -11.19 l 29.38,-80.790001 h 12.24 l 29.26,80.790001 h -11.19 z m -3.03,-8.62 -14.69,-41.03 -14.69,41.03 z"
       id="path4"
       style="fill:#125938;stroke-width:0px" /><path
       class="cls-1"
       d="m -519.23488,184.36977 h 28.44 v 8.63 h -39.05 v -81.25 h 10.61 z"
       id="path5"
       style="fill:#125938;stroke-width:0px" /><path
       class="cls-1"
       d="m -521.57488,209.22372 v 27.16 h 29.61 v 8.74 h -29.61 v 27.98 h 33.11 v 8.74 h -43.71 v -81.37 h 43.71 v 8.74 h -33.11 z"
       id="path6"
       style="fill:#125938;stroke-width:0px" /><path
       class="cls-1"
       d="m -478.37488,370.68766 h -10.61 l -42.67,-64.7 v 64.7 h -10.61 v -81.37 h 10.61 l 42.67,64.58 v -64.58 h 10.61 z"
       id="path7"
       style="fill:#125938;stroke-width:0px" /><path
       class="cls-1"
       d="m -482.80488,378.16161 v 8.63 h -22.15 v 72.62 h -10.61 v -72.62 h -22.27 v -8.63 h 55.02 z"
       id="path8"
       style="fill:#125938;stroke-width:0px" /></g><g
     id="g2"
     transform="matrix(0.18829395,0,0,0.18829395,378.45517,242.80197)"><path
       class="cls-1"
       d="m -509.40988,-29.72813 v 31.23 c 0,2.580002 0.55,4.400002 1.64,5.460002 1.1,1.06 3,1.6 5.71,1.6 h 6.48 v 7.45 h -7.93 c -4.9,0 -8.57,-1.13 -11.02,-3.38 -2.45,-2.26 -3.67,-5.96 -3.67,-11.120002 v -31.23 h -6.87 v -7.25 h 6.87 v -13.34 h 8.8 v 13.34 h 13.83 v 7.25 h -13.83 z"
       id="path3-4"
       style="fill:#125938;stroke-width:0px" /><path
       class="cls-1"
       d="m -492.59988,86.205819 h -35.44 l -6.53,18.070001 h -11.19 l 29.38,-80.790001 h 12.24 l 29.26,80.790001 h -11.19 z m -3.03,-8.62 -14.69,-41.03 -14.69,41.03 z"
       id="path4-9"
       style="fill:#125938;stroke-width:0px" /><path
       class="cls-1"
       d="m -519.23488,184.36977 h 28.44 v 8.63 h -39.05 v -81.25 h 10.61 z"
       id="path5-5"
       style="fill:#125938;stroke-width:0px" /><path
       class="cls-1"
       d="m -521.57488,209.22372 v 27.16 h 29.61 v 8.74 h -29.61 v 27.98 h 33.11 v 8.74 h -43.71 v -81.37 h 43.71 v 8.74 h -33.11 z"
       id="path6-6"
       style="fill:#125938;stroke-width:0px" /><path
       class="cls-1"
       d="m -478.37488,370.68766 h -10.61 l -42.67,-64.7 v 64.7 h -10.61 v -81.37 h 10.61 l 42.67,64.58 v -64.58 h 10.61 z"
       id="path7-8"
       style="fill:#125938;stroke-width:0px" /><path
       class="cls-1"
       d="m -482.80488,378.16161 v 8.63 h -22.15 v 72.62 h -10.61 v -72.62 h -22.27 v -8.63 h 55.02 z"
       id="path8-6"
       style="fill:#125938;stroke-width:0px" /></g></svg>
